<svg width="80" height="80" viewBox="0 0 80 80" fill="none" xmlns="http://www.w3.org/2000/svg">
<path d="M29.3334 37.3333C25.7971 37.3333 22.4057 35.9286 19.9053 33.4281C17.4048 30.9276 16 27.5362 16 24V13.3333C16 12.6261 16.281 11.9478 16.7811 11.4477C17.2812 10.9476 17.9594 10.6666 18.6667 10.6666H21.3334C22.0406 10.6666 22.7189 10.3857 23.219 9.8856C23.7191 9.3855 24 8.70722 24 7.99998C24 7.29274 23.7191 6.61446 23.219 6.11436C22.7189 5.61426 22.0406 5.33331 21.3334 5.33331H18.6667C16.545 5.33331 14.5101 6.17617 13.0098 7.67646C11.5095 9.17675 10.6667 11.2116 10.6667 13.3333V24C10.6701 27.0126 11.4047 29.9794 12.8075 32.6455C14.2102 35.3117 16.2392 37.5975 18.72 39.3066C21.1036 41.408 23.0366 43.9706 24.4024 46.8397C25.7682 49.7089 26.5385 52.825 26.6667 56C26.6667 60.9507 28.6334 65.6986 32.134 69.1993C35.6347 72.7 40.3826 74.6666 45.3334 74.6666C50.2841 74.6666 55.032 72.7 58.5327 69.1993C62.0334 65.6986 64 60.9507 64 56V52.96C66.5138 52.3109 68.7045 50.7674 70.1616 48.6186C71.6187 46.4699 72.2421 43.8635 71.915 41.288C71.5879 38.7125 70.3327 36.3447 68.3846 34.6285C66.4366 32.9122 63.9296 31.9654 61.3334 31.9654C58.7372 31.9654 56.2301 32.9122 54.2821 34.6285C52.3341 36.3447 51.0788 38.7125 50.7517 41.288C50.4246 43.8635 51.048 46.4699 52.5051 48.6186C53.9622 50.7674 56.1529 52.3109 58.6667 52.96V56C58.6667 59.5362 57.2619 62.9276 54.7614 65.4281C52.261 67.9286 48.8696 69.3333 45.3334 69.3333C41.7971 69.3333 38.4057 67.9286 35.9053 65.4281C33.4048 62.9276 32 59.5362 32 56C32.135 52.821 32.9136 49.7025 34.2887 46.8332C35.6638 43.9638 37.6067 41.4033 40 39.3066C42.471 37.5915 44.4896 35.3031 45.8828 32.6374C47.2761 29.9716 48.0026 27.0079 48 24V13.3333C48 11.2116 47.1572 9.17675 45.6569 7.67646C44.1566 6.17617 42.1218 5.33331 40 5.33331H37.3334C36.6261 5.33331 35.9478 5.61426 35.4477 6.11436C34.9476 6.61446 34.6667 7.29274 34.6667 7.99998C34.6667 8.70722 34.9476 9.3855 35.4477 9.8856C35.9478 10.3857 36.6261 10.6666 37.3334 10.6666H40C40.7073 10.6666 41.3855 10.9476 41.8856 11.4477C42.3857 11.9478 42.6667 12.6261 42.6667 13.3333V24C42.6667 25.7509 42.3218 27.4847 41.6517 29.1024C40.9817 30.7201 39.9996 32.19 38.7614 33.4281C37.5233 34.6662 36.0535 35.6483 34.4358 36.3184C32.8181 36.9884 31.0843 37.3333 29.3334 37.3333ZM61.3334 48C59.9189 48 58.5623 47.4381 57.5621 46.4379C56.5619 45.4377 56 44.0811 56 42.6666C56 41.2522 56.5619 39.8956 57.5621 38.8954C58.5623 37.8952 59.9189 37.3333 61.3334 37.3333C62.7478 37.3333 64.1044 37.8952 65.1046 38.8954C66.1048 39.8956 66.6667 41.2522 66.6667 42.6666C66.6667 44.0811 66.1048 45.4377 65.1046 46.4379C64.1044 47.4381 62.7478 48 61.3334 48Z" fill="#FF2976"/>
</svg>
