<svg width="64" height="80" viewBox="0 0 64 80" fill="none" xmlns="http://www.w3.org/2000/svg">
<path d="M47.944 8C47.698 5.79996 46.6498 3.76774 44.9998 2.29189C43.3498 0.816028 41.2137 6.68824e-05 39 0H25C22.7862 6.68824e-05 20.6502 0.816028 19.0002 2.29189C17.3502 3.76774 16.302 5.79996 16.056 8H9C6.61305 8 4.32387 8.94821 2.63604 10.636C0.948212 12.3239 0 14.6131 0 17V71C0 73.3869 0.948212 75.6761 2.63604 77.364C4.32387 79.0518 6.61305 80 9 80H55C56.1819 80 57.3522 79.7672 58.4442 79.3149C59.5361 78.8626 60.5282 78.1997 61.364 77.364C62.1997 76.5282 62.8626 75.5361 63.3149 74.4442C63.7672 73.3522 64 72.1819 64 71V17C64 15.8181 63.7672 14.6478 63.3149 13.5558C62.8626 12.4639 62.1997 11.4718 61.364 10.636C60.5282 9.80031 59.5361 9.13738 58.4442 8.68508C57.3522 8.23279 56.1819 8 55 8H47.944ZM47.98 8.384L48 9C48 8.792 47.992 8.588 47.98 8.384ZM25 18H39C42.12 18 44.868 16.412 46.484 14H55C55.7957 14 56.5587 14.3161 57.1213 14.8787C57.6839 15.4413 58 16.2044 58 17V71C58 71.7956 57.6839 72.5587 57.1213 73.1213C56.5587 73.6839 55.7957 74 55 74H9C8.20435 74 7.44129 73.6839 6.87868 73.1213C6.31607 72.5587 6 71.7956 6 71V17C6 16.2044 6.31607 15.4413 6.87868 14.8787C7.44129 14.3161 8.20435 14 9 14H17.516C19.132 16.412 21.88 18 25 18ZM25 6H39C39.7957 6 40.5587 6.31607 41.1213 6.87868C41.6839 7.44129 42 8.20435 42 9C42 9.79565 41.6839 10.5587 41.1213 11.1213C40.5587 11.6839 39.7957 12 39 12H25C24.2044 12 23.4413 11.6839 22.8787 11.1213C22.3161 10.5587 22 9.79565 22 9C22 8.20435 22.3161 7.44129 22.8787 6.87868C23.4413 6.31607 24.2044 6 25 6ZM50 49C50 48.2043 49.6839 47.4413 49.1213 46.8787C48.5587 46.3161 47.7957 46 47 46C46.2043 46 45.4413 46.3161 44.8787 46.8787C44.3161 47.4413 44 48.2043 44 49V61C44 61.7957 44.3161 62.5587 44.8787 63.1213C45.4413 63.6839 46.2043 64 47 64C47.7957 64 48.5587 63.6839 49.1213 63.1213C49.6839 62.5587 50 61.7957 50 61V49ZM32 36C32.7957 36 33.5587 36.3161 34.1213 36.8787C34.6839 37.4413 35 38.2043 35 39V61C35 61.7957 34.6839 62.5587 34.1213 63.1213C33.5587 63.6839 32.7957 64 32 64C31.2044 64 30.4413 63.6839 29.8787 63.1213C29.3161 62.5587 29 61.7957 29 61V39C29 38.2043 29.3161 37.4413 29.8787 36.8787C30.4413 36.3161 31.2044 36 32 36ZM20 31C20 30.2044 19.6839 29.4413 19.1213 28.8787C18.5587 28.3161 17.7956 28 17 28C16.2044 28 15.4413 28.3161 14.8787 28.8787C14.3161 29.4413 14 30.2044 14 31V61C14 61.7957 14.3161 62.5587 14.8787 63.1213C15.4413 63.6839 16.2044 64 17 64C17.7956 64 18.5587 63.6839 19.1213 63.1213C19.6839 62.5587 20 61.7957 20 61V31Z" fill="#FF2976"/>
</svg>
