<svg width="375" height="387" viewBox="0 0 375 387" fill="none" xmlns="http://www.w3.org/2000/svg">
<g clip-path="url(#clip0_33_173)">
<path d="M101.076 194.374C89.1089 189.723 73.7147 174.356 77.5587 167.176C78.4124 165.364 78.9198 163.408 79.0546 161.41C79.3019 158.697 79.3383 155.969 79.1634 153.25C78.8939 148.798 78.358 144.366 77.5587 139.978C77.5587 139.978 114.92 140.821 112.744 146.324C112.11 147.938 112.01 150.739 112.182 153.876C112.354 157.013 112.808 160.558 113.279 163.558C113.932 167.675 114.585 170.811 114.585 170.811C114.585 170.811 112.3 174.012 110.958 174.184C109.616 174.356 118.247 201.002 101.076 194.374Z" fill="#FFB0B1"/>
<path d="M127.186 126.288C127.194 129.555 126.68 132.802 125.663 135.907C123.392 142.864 118.734 148.794 112.513 152.649C106.293 156.504 98.9094 158.036 91.6685 156.974C84.4276 155.912 77.7953 152.324 72.9437 146.845C68.0922 141.365 65.3338 134.347 65.1561 127.031C65.1561 126.777 65.1561 126.542 65.1561 126.288C65.0857 122.17 65.8361 118.079 67.3634 114.254C68.8906 110.428 71.1643 106.946 74.0517 104.008C76.9391 101.071 80.3825 98.7383 84.181 97.1458C87.9795 95.5534 92.0571 94.7333 96.1759 94.7333C100.295 94.7333 104.372 95.5534 108.171 97.1458C111.969 98.7383 115.413 101.071 118.3 104.008C121.187 106.946 123.461 110.428 124.988 114.254C126.516 118.079 127.266 122.17 127.196 126.288H127.186Z" fill="#FFB0B1"/>
<path d="M143.442 253.875L129.762 483.701L111.919 484.87L65.7185 351.608L73.2978 193.395L74.8934 159.968L95.4372 176.84L105.582 185.154L113.515 164.964L128.266 177.82L143.442 253.875Z" fill="#161616"/>
<path d="M116.588 487.545C79.4173 493.891 45.365 475.695 45.365 475.695L45.7005 469.531C45.7005 469.531 46.5436 399.64 44.1955 394.282C41.8474 388.924 40.0341 361.753 41.3669 357.582C42.6996 353.412 36.5346 290.874 36.5346 290.874L35.5283 265.489L-0.98999 250.647L15.329 216.631C17.5284 211.86 19.424 206.955 21.0044 201.944C23.833 193.114 37.0151 184.438 37.0151 184.438C37.0151 184.438 50.5236 175.77 55.8545 176.097C61.1854 176.423 68.1935 168.427 68.1935 168.427C73.3702 155.254 79.0728 161.219 79.0728 161.219C79.0728 161.845 78.5288 162.126 78.8189 163.169C82.808 177.194 107.141 223.322 107.586 224.129L110.587 296.35L113.587 387.745L116.588 487.545Z" fill="white"/>
<path opacity="0.1" d="M106.57 226.187C102.572 224.519 81.3937 200.34 81.3937 200.34V194.837C80.6231 193.023 76.0447 194.13 72.3276 195.399L73.9233 161.972L75.7365 163.477C79.7075 177.493 106.108 225.38 106.57 226.187Z" fill="black"/>
<path d="M107.577 224.184C103.569 222.515 82.3911 198.336 82.3911 198.336V192.833C81.6204 191.02 77.0421 192.126 73.325 193.395L74.9296 159.968L76.7429 161.473C80.7229 175.489 107.132 223.386 107.577 224.184Z" fill="white"/>
<path d="M45.3653 342.768C45.8639 342.768 71.2128 340.103 71.2128 340.103C71.2128 340.103 86.5526 370.293 85.5554 377.628C84.5581 384.962 82.7177 391.472 76.5527 390.32C70.3878 389.169 43.3254 391.227 43.3254 391.227L45.3653 342.768Z" fill="white"/>
<path d="M64.4671 328.598C64.4671 328.598 87.7307 341.1 88.2293 344.917C88.728 348.734 76.389 343.249 73.7236 342.587C71.9692 342.164 70.1833 341.885 68.3836 341.753L50.605 342.233L64.4671 328.598Z" fill="#FFB0B1"/>
<path d="M100.079 226.749C101.431 226.749 102.527 225.653 102.527 224.301C102.527 222.95 101.431 221.854 100.079 221.854C98.727 221.854 97.6311 222.95 97.6311 224.301C97.6311 225.653 98.727 226.749 100.079 226.749Z" fill="#3F3D56"/>
<path d="M104.585 332.705C105.936 332.705 107.032 331.609 107.032 330.257C107.032 328.905 105.936 327.809 104.585 327.809C103.233 327.809 102.137 328.905 102.137 330.257C102.137 331.609 103.233 332.705 104.585 332.705Z" fill="#3F3D56"/>
<path d="M102.518 279.731C103.869 279.731 104.965 278.636 104.965 277.284C104.965 275.932 103.869 274.836 102.518 274.836C101.166 274.836 100.07 275.932 100.07 277.284C100.07 278.636 101.166 279.731 102.518 279.731Z" fill="#3F3D56"/>
<path d="M159.952 341.245C159.952 341.245 161.611 343.748 159.952 344.917C158.293 346.087 160.106 348.915 160.106 348.915C160.106 348.915 155.972 351.381 157.785 353.575C159.598 355.769 158.456 365.678 158.456 365.678L153.451 373.965C153.451 373.965 153.75 379.305 153.778 386.521C153.778 397.782 153.116 413.611 149.453 420.828L149.952 480.038C149.952 480.038 132.4 486.439 117.749 484.49L115.582 389.477C115.582 389.477 118.755 335.597 119.925 325.262C120.61 319.896 120.886 314.486 120.75 309.079C120.75 309.079 120.251 292.905 118.583 285.398C118.583 285.398 116.77 252.878 116.579 243.875C116.498 239.569 116.734 227.003 116.978 215.054C117.259 201.99 117.577 189.669 117.577 189.669L113.207 163.133C113.207 163.133 117.577 163.133 118.583 164.483C119.026 164.906 119.512 165.279 120.034 165.599C125.745 169.461 145.935 181.337 145.935 181.337C145.935 181.337 157.096 185.78 159.77 192.144C162.445 198.509 164.303 203.023 165.609 204.837C166.914 206.65 167.603 215.172 167.603 215.172C167.603 215.172 171.447 230.856 174.448 233.513C177.449 236.169 179.616 253.032 179.616 253.032L153.098 273.884C153.098 273.884 150.768 308.571 150.26 309.913C149.752 311.255 159.952 341.245 159.952 341.245Z" fill="white"/>
<path opacity="0.1" d="M128.193 197.366L130.587 204.347L117.985 217.04C118.266 203.984 118.583 191.655 118.583 191.655L114.213 165.118C114.213 165.118 118.583 165.118 119.589 166.469C120.031 166.89 120.517 167.261 121.04 167.575L131.756 198.49L128.193 197.366Z" fill="black"/>
<path d="M127.187 195.362L129.589 202.343L116.987 215.036C117.268 201.972 117.586 189.651 117.586 189.651L113.207 163.114C113.207 163.114 117.586 163.114 118.583 164.465C119.028 164.885 119.514 165.258 120.034 165.58L130.759 196.487L127.187 195.362Z" fill="white"/>
<path d="M109.018 77.0316C104.307 74.8155 98.9487 74.3964 93.9503 75.853C91.439 76.5965 89.0727 77.8022 86.5251 78.4097C81.0855 79.7243 74.7392 78.3009 70.0701 81.4831C67.4772 83.2963 65.9179 86.1612 64.4673 88.9445L60.8409 95.8529C58.8644 99.6334 56.8699 103.477 56.0449 107.639C55.2199 111.8 55.7185 116.46 58.3567 119.806C60.2787 122.244 63.1164 123.776 65.2017 126.07C66.4509 127.465 67.3985 129.104 67.985 130.882C68.5716 132.66 68.7846 134.541 68.6105 136.406C70.9768 135.499 71.2034 132.308 71.2578 129.769C71.3588 125.278 72.1351 120.829 73.5606 116.569C74.3881 113.759 75.793 111.153 77.6857 108.917C78.6417 107.81 79.8225 106.918 81.1496 106.302C82.4768 105.686 83.9198 105.36 85.3828 105.345C89.0093 105.472 92.264 107.974 95.8542 107.675C98.574 107.448 100.986 105.59 103.724 105.227C106.138 104.999 108.55 105.681 110.487 107.14C112.404 108.595 114.083 110.338 115.464 112.308C120.414 118.826 124.431 126.469 124.666 134.647C125.691 135.399 127.168 134.42 127.676 133.26C128.184 132.099 128.202 130.739 128.846 129.633C129.589 128.355 131.013 127.675 132.128 126.714C134.956 124.275 135.663 120.168 135.555 116.442C135.446 112.716 134.721 108.935 135.428 105.273C135.854 103.024 136.815 100.921 137.341 98.6996C137.866 96.4784 137.93 93.9852 136.688 92.0723C134.875 89.2618 131.058 88.7088 127.731 88.4459C123.95 88.1195 120.568 88.5365 118.157 85.3543C117.025 83.6937 115.751 82.1345 114.349 80.6943C113.869 80.2229 109.018 77.2311 109.018 77.0316Z" fill="black"/>
<path opacity="0.1" d="M10.4786 268.218L1.00454 250.702L-1.99634 277.728C-1.99634 277.728 -0.328173 289.731 -0.663619 291.572C-0.999065 293.412 6.17221 309.913 6.17221 309.913C6.17221 309.913 29.862 352.106 39.5355 354.282L72.2188 330.928L63.5516 319.922C63.5516 319.922 60.5507 318.752 59.7983 319.922C59.7983 319.922 43.7059 292.234 42.0377 290.23C40.3696 288.227 40.696 284.228 40.696 284.228C40.696 284.228 38.1937 281.563 39.0278 279.061C39.8619 276.558 34.1955 267.882 34.1955 267.882L39.3632 263.05L10.4786 268.218Z" fill="black"/>
<path d="M1.50313 248.708L-0.999121 250.702L-4 277.728C-4 277.728 -2.33184 289.732 -2.66728 291.572C-3.00273 293.412 4.17765 309.913 4.17765 309.913C4.17765 309.913 27.8583 352.106 37.5318 354.282L70.2242 330.928L61.548 319.922C61.548 319.922 58.5471 318.752 57.7946 319.922C57.7946 319.922 41.7022 292.234 40.0341 290.23C38.3659 288.227 38.7014 284.229 38.7014 284.229C38.7014 284.229 36.1991 281.563 37.0332 279.061C37.8673 276.559 32.1919 267.882 32.1919 267.882L37.3596 263.05L1.50313 248.708Z" fill="white"/>
<path d="M157.785 353.575C159.598 355.778 158.456 365.678 158.456 365.678L153.451 373.964C153.451 373.964 153.75 379.304 153.778 386.521L145.21 389.195C144.465 389.427 143.676 389.477 142.908 389.342C142.14 389.207 141.416 388.89 140.795 388.418C140.174 387.946 139.675 387.333 139.339 386.629C139.003 385.925 138.84 385.152 138.864 384.372L140.323 337.437L159.961 344.944C158.283 346.104 160.115 348.942 160.115 348.942C160.115 348.942 155.972 351.381 157.785 353.575Z" fill="white"/>
<path d="M164.285 331.272C164.285 331.272 162.952 339.785 159.616 340.284C156.28 340.783 154.784 354.056 151.456 353.584C148.129 353.113 150.332 341.245 150.45 338.942C150.568 336.64 146.824 327.102 149.625 324.935C152.427 322.768 161.293 324.935 161.293 324.935L164.285 331.272Z" fill="#FFB0B1"/>
<path opacity="0.1" d="M171.384 265.715L177.676 253.023C177.676 253.023 180.178 262.696 180.178 267.864C180.178 273.032 183.678 273.54 183.678 273.54C183.678 273.54 187.513 278.073 185.491 281.373C183.469 284.673 182.653 292.887 182.653 292.887C182.653 292.887 183.315 308.562 180.314 310.729C177.313 312.896 176.688 318.072 176.688 318.072C176.688 318.072 171.175 327.909 171.348 330.248C171.52 332.587 163.678 348.426 163.678 348.426C163.678 348.426 167.513 328.743 145.165 320.239C145.165 320.239 144.992 313.557 146.661 311.726C148.329 309.895 150.931 309.061 149.299 299.804C147.667 290.548 148.827 279.487 148.827 277.266C148.827 275.045 153.832 261.192 153.832 261.192L171.384 265.715Z" fill="black"/>
<path d="M174.104 251.21L179.598 253.023C179.598 253.023 182.109 262.696 182.109 267.864C182.109 273.032 185.609 273.54 185.609 273.54C185.609 273.54 189.444 278.073 187.422 281.373C185.4 284.673 184.593 292.887 184.593 292.887C184.593 292.887 185.255 308.562 182.254 310.729C179.253 312.896 178.582 318.072 178.582 318.072C178.582 318.072 173.079 327.909 173.252 330.248C173.424 332.587 165.573 348.426 165.573 348.426C165.573 348.426 169.417 328.743 147.06 320.239C147.06 320.239 146.896 313.557 148.564 311.726C150.233 309.895 152.835 309.061 151.203 299.804C149.571 290.548 150.731 279.487 150.731 277.266C150.731 275.045 155.736 261.192 155.736 261.192L174.104 251.21Z" fill="white"/>
<g opacity="0.1">
<path d="M132.146 124.728C131.031 125.689 129.598 126.379 128.855 127.657C128.22 128.754 128.202 130.105 127.694 131.283C127.187 132.462 125.709 133.423 124.684 132.679C124.449 124.52 120.423 116.859 115.482 110.332C114.101 108.362 112.422 106.618 110.505 105.164C108.565 103.705 106.149 103.023 103.733 103.251C101.013 103.623 98.6193 105.472 95.8722 105.699C92.2458 106.007 88.9911 103.496 85.3918 103.369C83.9292 103.383 82.4865 103.71 81.1606 104.328C79.8346 104.946 78.656 105.84 77.7038 106.95C75.8112 109.182 74.4061 111.785 73.5787 114.593C72.154 118.852 71.3777 123.302 71.2759 127.793C71.2215 130.322 70.9858 133.477 68.6467 134.42C68.7012 135.09 68.7012 135.763 68.6467 136.433C71.0039 135.526 71.2396 132.335 71.294 129.796C71.3951 125.306 72.1714 120.856 73.5968 116.596C74.4243 113.786 75.8293 111.18 77.7219 108.944C78.6762 107.837 79.8553 106.946 81.181 106.33C82.5066 105.714 83.9483 105.388 85.41 105.372C89.0364 105.499 92.3002 108.002 95.8904 107.702C98.6102 107.476 101.022 105.617 103.751 105.254C106.168 105.026 108.583 105.709 110.523 107.167C112.44 108.622 114.119 110.365 115.5 112.335C120.441 118.854 124.467 126.496 124.702 134.674C125.727 135.426 127.205 134.447 127.712 133.287C128.22 132.126 128.238 130.767 128.873 129.66C129.616 128.382 131.049 127.702 132.164 126.741C134.992 124.302 135.7 120.195 135.591 116.469C135.591 116.351 135.591 116.234 135.591 116.125C135.419 119.352 134.557 122.643 132.146 124.728Z" fill="black"/>
<path d="M65.2199 124.085C63.1347 121.791 60.2879 120.259 58.375 117.829C56.7642 115.678 55.8442 113.089 55.7368 110.404C55.4514 113.759 56.3884 117.105 58.375 119.824C60.2879 122.262 63.1347 123.795 65.2199 126.088C67.222 128.332 68.4239 131.176 68.6378 134.175C68.7766 132.35 68.5454 130.515 67.9581 128.781C67.3708 127.047 66.4395 125.45 65.2199 124.085V124.085Z" fill="black"/>
<path d="M137.359 96.7141C136.824 98.9351 135.872 101.047 135.437 103.287C135.179 104.783 135.085 106.303 135.156 107.819C135.186 106.955 135.28 106.095 135.437 105.245C135.872 102.997 136.824 100.893 137.359 98.6722C137.67 97.4472 137.771 96.178 137.658 94.9191C137.601 95.5238 137.501 96.1237 137.359 96.7141V96.7141Z" fill="black"/>
</g>
<path d="M314.687 430.984L310.256 460.566L305.103 480.172L297.724 517.233V556.463C297.724 556.463 302.516 634.518 300.671 636.649C298.827 638.78 291.819 650.917 289.974 650.21C288.129 649.503 273.011 647.004 268.209 649.135C263.407 651.266 247.155 649.493 247.155 649.493C247.155 649.493 246.784 619.203 244.94 610.65C243.095 602.097 248.258 565.743 248.258 565.743L250.103 546.147C250.103 546.147 252.689 532.954 250.474 529.389C248.258 525.825 253.792 511.954 253.792 511.954C253.792 511.954 251.216 504.098 251.958 499.468C252.699 494.837 253.792 477.372 253.792 477.372C253.792 477.372 251.958 489.5 246.835 496.62C241.712 503.739 242.363 567.545 242.363 567.545L242.724 622.758C251.958 651.992 242.724 649.135 242.724 649.135C242.724 649.135 207.695 656.623 200.617 650.559C193.539 644.495 195.564 606.33 195.564 606.33C195.564 606.33 194.833 575.682 197.78 566.421C200.728 557.161 201.66 522.938 201.66 522.938C201.66 522.938 201.469 454.502 201.66 449.882C201.8 446.007 201.66 411.32 201.66 400.48C201.66 398.466 201.66 397.274 201.66 397.274L205.891 387.123L256.018 381.059H279.999C279.999 381.059 316.09 389.254 319.82 392.789C319.899 392.848 319.967 392.92 320.02 393.002C322.437 396.422 314.687 430.984 314.687 430.984Z" fill="white"/>
<path d="M243.817 116.548C238.534 122.253 236.248 130.341 230.092 135.165C226.353 138.071 221.621 139.456 217.27 141.432C212.919 143.408 208.608 146.421 207.315 150.896C205.871 155.933 208.658 161.077 210.122 166.114C211.636 171.325 211.726 176.769 211.816 182.223C211.916 188.819 212.027 195.416 211.906 202.012C211.726 212.29 210.844 223.042 205.199 231.75C225.581 238.017 247.256 238.87 268.63 239.674C272.738 239.957 276.864 239.856 280.952 239.373C284.494 238.691 287.997 237.835 291.448 236.806C298.272 235.062 305.303 234.192 312.361 234.22C315.439 234.22 318.577 234.404 321.545 233.629C324.512 232.854 327.369 230.869 328.172 228.001C328.883 225.425 327.841 222.683 326.477 220.368C323.991 216.145 320.462 212.619 317.795 208.454C315.073 204.054 313.458 199.098 313.08 193.985C312.702 188.872 313.572 183.745 315.62 179.016C317.986 173.698 321.795 169.068 324.121 163.741C326.504 158.02 327.137 151.76 325.946 145.702C324.756 139.645 321.791 134.044 317.404 129.566C309.314 121.565 297.704 118.465 286.596 116.819C281.919 116.285 277.456 114.619 273.623 111.975C269.362 109.263 263.838 108.605 258.845 109.205C253.086 109.829 247.751 112.435 243.817 116.548Z" fill="black"/>
<path d="M292.19 216.61C291.448 218.218 288.32 232.108 287.578 233.532C286.836 234.956 282.786 257.749 282.415 259.027C282.044 260.306 255.717 253.68 255.717 253.68L239.867 240.846L223.575 225.182C223.575 225.182 223.094 211.05 235.095 206.516C235.91 206.207 236.748 205.954 237.601 205.761C252.158 202.38 250.694 159.614 250.694 159.614L280.57 172.081C280.57 172.081 275.036 197.033 275.227 201.847C275.277 203.465 276.59 204.473 278.304 205.083C280.955 205.811 283.715 206.1 286.465 205.935C286.465 205.935 292.932 215.012 292.19 216.61Z" fill="#FBBEBE"/>
<path d="M345.675 263.474L349.916 264.549C349.916 264.549 353.054 269.16 345.675 273.451C340.99 276.201 336.493 279.239 332.211 282.546L310.406 288.959L306.205 276.221L326.497 261.343L345.675 263.474Z" fill="#B9B9B9"/>
<path d="M186.542 275.776L178.061 283.796C178.061 283.796 193.359 300.903 205.129 301.968C216.899 303.034 224.488 288.959 224.488 288.959L214.303 273.46L186.542 275.776Z" fill="#B9B9B9"/>
<path d="M267.106 185.419C283.401 185.419 296.611 172.656 296.611 156.911C296.611 141.167 283.401 128.404 267.106 128.404C250.811 128.404 237.601 141.167 237.601 156.911C237.601 172.656 250.811 185.419 267.106 185.419Z" fill="#FBBEBE"/>
<path opacity="0.1" d="M320.041 396.238C313.322 396.981 306.705 398.413 300.301 400.51C289.273 404.055 202.853 400.568 201.65 400.51C201.65 398.495 201.65 397.303 201.65 397.303L205.881 387.152L256.008 381.088H279.989C279.989 381.088 316.081 389.283 319.81 392.819C319.961 394.95 320.041 396.238 320.041 396.238Z" fill="black"/>
<path d="M264.891 240.681L234.393 206.778C232.608 205.677 230.568 205.022 228.455 204.871C226.343 204.721 224.225 205.08 222.292 205.916C215.465 208.774 206.984 211.089 204.768 212.513C202.552 213.937 194.251 222.751 194.251 222.751L218.974 285.239L208.086 326.398C208.086 326.398 209.751 347.427 205.51 355.089C202.928 359.988 201.718 365.455 202.001 370.946C202.001 370.946 203.294 381.107 201.82 386.445C200.959 390.013 200.894 393.718 201.63 397.313C201.63 397.313 289.242 400.878 300.3 397.313C306.703 395.21 313.321 393.778 320.041 393.041C320.041 393.041 318.036 357.395 316.03 348.841C314.025 340.288 317.695 307.683 317.695 307.683L315.299 272.753L329.675 236.913C329.675 236.913 321.885 213.937 313.765 211.621C313.765 211.621 299.017 208.231 295.879 206.633C292.741 205.035 283.518 203.601 283.518 203.601L278.676 205.17L264.891 240.681Z" fill="white"/>
<path opacity="0.1" d="M307.441 271.574L243.266 267.357C241.642 267.251 240.236 268.436 240.125 270.005L233.236 367.904C233.125 369.474 234.352 370.832 235.976 370.939L300.152 375.155C301.776 375.262 303.182 374.076 303.292 372.507L310.182 274.608C310.292 273.039 309.065 271.68 307.441 271.574Z" fill="black"/>
<path d="M309.65 269.448L245.475 265.232C243.851 265.125 242.445 266.31 242.335 267.88L235.445 365.779C235.334 367.348 236.562 368.706 238.186 368.813L302.361 373.029C303.985 373.136 305.391 371.95 305.501 370.381L312.391 272.482C312.502 270.913 311.275 269.554 309.65 269.448Z" fill="#3F3D56"/>
<path d="M307.533 277.121L246.499 273.112L240.227 362.235L301.261 366.245L307.533 277.121Z" fill="white"/>
<path opacity="0.1" d="M300.256 353.222L292.344 352.703L291.852 359.7L299.764 360.219L300.256 353.222Z" fill="black"/>
<path opacity="0.1" d="M292.452 336.336L251.953 333.675L251.46 340.672L291.96 343.333L292.452 336.336Z" fill="black"/>
<path opacity="0.1" d="M299.979 273.789L257.809 271.019L257.052 281.775L299.222 284.545L299.979 273.789Z" fill="black"/>
<path d="M269.362 148.717C268.809 144.044 269.992 139.334 272.7 135.427C271.798 143.176 277.843 151.177 285.804 152.669C285.465 152.388 285.224 152.014 285.111 151.597C284.998 151.18 285.019 150.739 285.172 150.334C287.227 152.582 288.801 155.236 291.127 157.221C293.453 159.207 296.942 160.379 299.679 158.965C303.398 157.028 303.438 151.923 302.476 147.961C300.411 139.503 296.173 131.684 290.155 125.227C288.287 123.027 285.934 121.26 283.267 120.054C281.337 119.364 279.308 118.966 277.252 118.872C271.557 118.446 265.642 118.921 260.539 121.391C257.67 122.912 254.98 124.73 252.519 126.815L238.483 137.877C237.131 138.815 235.974 139.992 235.075 141.345C234.471 142.474 234.11 143.71 234.012 144.978C233.654 148.599 234.348 152.245 236.017 155.506C237.685 158.768 240.261 161.515 243.456 163.44C243.391 160.577 244.207 157.76 245.801 155.346C247.395 152.932 249.695 151.029 252.409 149.879C252.833 150.224 253.176 150.652 253.416 151.134C253.656 151.617 253.788 152.143 253.802 152.678L256.75 147.603C257.187 146.674 257.881 145.88 258.755 145.307C260.58 144.338 262.855 145.481 264.409 146.847C265.963 148.213 267.477 149.908 269.562 150.131L269.643 142.537" fill="black"/>
<path d="M283.337 328.528C280.761 327.269 238.153 333.691 238.153 333.691C238.153 333.691 231.135 331.754 214.172 329.061C197.209 326.368 196.126 310.347 196.126 310.347L194.271 278.274L199.996 273.431L224.518 288.93C224.518 288.93 224.899 296.766 224.518 298.18C224.277 299.149 223.636 300.302 223.696 301.086C223.715 301.299 223.805 301.499 223.954 301.657C224.102 301.815 224.301 301.921 224.518 301.958C226.182 302.365 248.86 305.91 248.86 305.91C248.86 305.91 301.423 302.433 314.527 319.539C315.565 320.795 316.35 322.227 316.842 323.763C320.091 335.454 285.673 329.642 283.337 328.528Z" fill="#FBBEBE"/>
<path opacity="0.1" d="M316.873 323.831C314.868 324.693 313.625 325.313 313.625 325.313C313.625 325.313 294.817 324.78 284.25 321.08C273.683 317.379 260.841 318.038 260.841 318.038C260.841 318.038 216.809 310.715 223.636 301.154C223.655 301.367 223.745 301.567 223.894 301.725C224.043 301.883 224.241 301.988 224.458 302.026C226.122 302.433 248.8 305.978 248.8 305.978C248.8 305.978 301.364 302.501 314.467 319.607C315.537 320.856 316.354 322.289 316.873 323.831V323.831Z" fill="black"/>
<path d="M335.159 267.397C335.159 267.397 337.746 285.036 337.926 286.47C338.107 287.903 339.039 305.174 337.926 307.141C336.813 309.107 335.159 312.304 335.159 312.304C335.159 312.304 337.004 316.043 329.625 317.476C322.246 318.91 313.584 323.172 313.584 323.172C313.584 323.172 294.767 322.639 284.26 318.9C273.753 315.161 260.84 315.868 260.84 315.868C260.84 315.868 204.949 306.598 228.929 295.284C252.91 283.97 269.873 299.295 269.873 299.295L296.611 297.696C296.611 297.696 306.577 291.807 309.344 292.349C311.298 292.59 313.282 292.28 315.058 291.458L315.249 272.744L335.159 267.397Z" fill="#FBBEBE"/>
<path d="M199.575 223.023L194.221 222.751L178 283.777C178 283.777 195.514 279.495 203.064 283.777C210.613 288.058 224.458 288.94 224.458 288.94L219.295 240.294L199.575 223.023Z" fill="white"/>
<path d="M322.256 235.324L329.625 236.922C329.625 236.922 348.443 263.125 349.916 264.549C351.39 265.973 342.898 271.329 339.399 271.329C335.901 271.329 318.747 273.267 313.764 277.742C308.782 282.217 310.857 259.696 310.857 259.182C310.857 258.669 317.083 244.41 317.083 244.41L322.256 235.324Z" fill="white"/>
</g>
<defs>
<clipPath id="clip0_33_173">
<rect width="375" height="387" fill="white"/>
</clipPath>
</defs>
</svg>
