<svg width="78" height="62" viewBox="0 0 78 62" fill="none" xmlns="http://www.w3.org/2000/svg">
<path d="M33 0C29.718 0 27 2.67486 27 5.90476V8.85714H9C4.065 8.85714 0 12.8576 0 17.7143V62H78V17.7143C78 12.8576 73.935 8.85714 69 8.85714H51V5.90476C51 2.67486 48.282 0 45 0H33ZM33 5.90476H45V8.85714H33V5.90476ZM9 14.7619H69C70.698 14.7619 72 16.0432 72 17.7143V56.0952H6V17.7143C6 16.0432 7.302 14.7619 9 14.7619ZM36 23.619V32.4762H27V38.381H36V47.2381H42V38.381H51V32.4762H42V23.619H36Z" fill="#FF2976"/>
</svg>
