<svg width="80" height="80" viewBox="0 0 80 80" fill="none" xmlns="http://www.w3.org/2000/svg">
<path d="M40 6.66669C21.62 6.66669 6.66663 21.62 6.66663 40C6.66663 58.38 21.62 73.3334 40 73.3334C58.38 73.3334 73.3333 58.38 73.3333 40C73.3333 21.62 58.38 6.66669 40 6.66669ZM40 66.6667C25.2966 66.6667 13.3333 54.7034 13.3333 40C13.3333 25.2967 25.2966 13.3334 40 13.3334C54.7033 13.3334 66.6666 25.2967 66.6666 40C66.6666 54.7034 54.7033 66.6667 40 66.6667Z" fill="#FF2976"/>
<path d="M43.3333 23.3333H36.6666V43.3333H56.6666V36.6666H43.3333V23.3333Z" fill="#FF2976"/>
</svg>
